<svg width="179" height="72" viewBox="0 0 179 72" fill="none" xmlns="http://www.w3.org/2000/svg">
<path d="M69.992 7.97296C69.992 7.01846 70.7625 6.42329 72.2253 6.42329C73.0064 6.32081 73.7962 6.53213 74.4233 7.01144C75.0504 7.49075 75.4643 8.19938 75.5753 8.98361H83.6376C83.0457 3.89664 79.4054 0 72.471 0C65.5366 0 61.8628 3.70574 61.8628 8.19755C61.8628 17.6303 75.4301 14.5535 75.4301 18.3041C75.4301 19.2137 74.5703 19.9549 73.0628 19.9549C71.198 19.9549 69.7798 19.034 69.5565 17.3384H60.9024C61.2709 22.4703 66.0055 26.322 73.1075 26.322C79.7069 26.322 83.7157 22.9531 83.7157 18.4613C83.6487 8.71411 69.992 11.645 69.992 7.97296Z" fill="url(#paint0_linear_233_6)"/>
<path d="M123.458 7.97296C123.458 7.01846 124.228 6.42329 125.691 6.42329C126.472 6.32081 127.262 6.53213 127.889 7.01144C128.516 7.49075 128.93 8.19938 129.041 8.98361H137.103C136.511 3.89664 132.871 0 125.937 0C119.002 0 115.328 3.70574 115.328 8.19755C115.328 17.6303 128.896 14.5535 128.896 18.3041C128.896 19.2137 128.025 19.9549 126.528 19.9549C124.652 19.9549 123.245 19.034 123.022 17.3384H114.368C114.736 22.4703 119.471 26.322 126.573 26.322C133.172 26.322 137.181 22.9531 137.181 18.4613C137.07 8.71411 123.458 11.645 123.458 7.97296Z" fill="url(#paint1_linear_233_6)"/>
<path d="M142.798 38.8541C143.495 39.2588 144.057 39.862 144.414 40.5875C144.77 41.313 144.905 42.1285 144.802 42.9311C144.698 43.7337 144.361 44.4875 143.832 45.0975C143.303 45.7074 142.606 46.1463 141.83 46.3587C141.053 46.5711 140.231 46.5476 139.468 46.2911C138.705 46.0346 138.034 45.5565 137.541 44.9173C137.047 44.278 136.753 43.5061 136.695 42.6989C136.637 41.8917 136.818 41.0853 137.215 40.3813C137.48 39.9109 137.835 39.4978 138.26 39.1661C138.685 38.8344 139.171 38.5905 139.69 38.4486C140.209 38.3066 140.751 38.2693 141.284 38.3389C141.818 38.4085 142.332 38.5836 142.798 38.8541Z" fill="url(#paint2_linear_233_6)"/>
<path d="M128.594 34.8452C125.166 40.8754 126.83 60.0667 126.64 65.9622C126.633 66.0958 126.664 66.2285 126.729 66.3455C126.793 66.4625 126.889 66.5591 127.005 66.6245C127.121 66.6898 127.253 66.7213 127.385 66.7154C127.518 66.7095 127.647 66.6664 127.757 66.591C132.726 63.4468 150.023 55.1706 153.44 49.1404C155.325 45.8286 155.824 41.8993 154.829 38.2171C153.833 34.5349 151.423 31.4012 148.13 29.5056C144.837 27.6099 140.93 27.1075 137.268 28.1089C133.606 29.1103 130.49 31.5334 128.605 34.8452H128.594ZM148.247 36.889C148.961 37.7933 149.484 38.834 149.785 39.9477C150.086 41.0615 150.16 42.2253 150 43.3684C149.807 45.2472 149.052 47.0229 147.835 48.4619C146.618 49.901 144.997 50.9359 143.184 51.4305C141.371 51.9251 139.452 51.8563 137.679 51.2331C135.906 50.6098 134.362 49.4614 133.251 47.9388C132.537 47.0345 132.014 45.9938 131.713 44.88C131.411 43.7662 131.338 42.6025 131.497 41.4594C131.691 39.5806 132.446 37.8049 133.663 36.3659C134.88 34.9268 136.501 33.8919 138.314 33.3973C140.126 32.9027 142.046 32.9715 143.819 33.5947C145.592 34.218 147.136 35.3664 148.247 36.889Z" fill="url(#paint3_linear_233_6)"/>
<path d="M7.81659 55.3615H0V29.8144H7.81659V34.0816C8.65739 32.7166 9.82885 31.5885 11.2213 30.8029C12.6138 30.0173 14.1817 29.5999 15.7783 29.5898V37.8772H13.6455C9.94939 37.8772 7.81659 39.1573 7.81659 43.5593V55.3615Z" fill="url(#paint4_linear_233_6)"/>
<path d="M31.0877 55.7321C23.6173 55.7321 17.9782 50.7013 17.9782 42.5936C17.9782 34.4859 23.7624 29.455 31.177 29.455C38.5916 29.455 44.3871 34.4971 44.3871 42.5936C44.3871 50.69 38.5581 55.7321 31.0877 55.7321ZM31.0877 48.9944C33.8682 48.9944 36.4588 46.9394 36.4588 42.6273C36.4588 38.3151 33.9129 36.2601 31.177 36.2601C28.4412 36.2601 25.8952 38.2814 25.8952 42.6273C25.8952 46.9731 28.2626 48.9607 31.0877 48.9607V48.9944Z" fill="url(#paint5_linear_233_6)"/>
<path d="M98.9022 26.3108C91.443 26.3108 85.7927 21.2799 85.7927 13.1722C85.7927 5.06451 91.577 0.0336872 98.9916 0.0336872C106.406 0.0336872 112.202 5.06451 112.202 13.1722C112.202 21.2799 106.373 26.3108 98.9022 26.3108ZM98.9022 19.5731C101.683 19.5731 104.285 17.5068 104.285 13.2059C104.285 8.90502 101.727 6.83877 98.9916 6.83877C96.2558 6.83877 93.721 8.8601 93.721 13.2059C93.721 17.5517 96.0771 19.5394 98.9022 19.5394V19.5731Z" fill="url(#paint6_linear_233_6)"/>
<path d="M49.7694 36.3275H46.6762V29.8144H49.7694V23.5932H57.586V29.8144H62.6779V36.3275H57.586V46.58C57.586 48.0848 58.2225 48.7361 59.9533 48.7361H62.7226V55.3615H58.7584C53.4878 55.3615 49.8252 53.1156 49.8252 46.479L49.7694 36.3275Z" fill="url(#paint7_linear_233_6)"/>
<path d="M78.3334 55.7321C70.863 55.7321 65.4919 50.7013 65.4919 42.5936C65.4919 34.4859 70.7737 29.455 78.3334 29.455C85.8932 29.455 90.9963 34.396 90.9963 42.1893C90.9936 42.9399 90.9489 43.6897 90.8623 44.4352H73.2303C73.5095 47.8041 75.553 49.3425 78.0543 49.3425C78.9016 49.3979 79.7456 49.1907 80.4723 48.749C81.199 48.3073 81.7737 47.6522 82.1189 46.872H90.4045C89.165 51.8916 84.6649 55.7321 78.3334 55.7321ZM73.275 40.1231H83.0234C83.0234 37.3269 80.7901 35.7211 78.2441 35.7211C77.0137 35.6786 75.8136 36.1108 74.8898 36.9292C73.966 37.7476 73.3883 38.8902 73.275 40.1231Z" fill="url(#paint8_linear_233_6)"/>
<path d="M95.1056 29.8144H102.922V55.3615H95.1056V29.8144Z" fill="url(#paint9_linear_233_6)"/>
<path d="M116.333 55.3615H108.517V29.8144H116.333V34.0816C117.177 32.7172 118.351 31.5898 119.745 30.8044C121.139 30.019 122.708 29.6012 124.306 29.5898V37.8772H122.162C118.477 37.8772 116.333 39.1573 116.333 43.5593V55.3615Z" fill="url(#paint10_linear_233_6)"/>
<path d="M168.704 55.7321C161.915 55.7321 157.37 51.9365 157.002 46.9955H164.696C164.885 48.781 166.471 49.9713 168.615 49.9713C170.759 49.9713 171.664 49.0505 171.664 47.9051C171.664 43.7839 157.828 46.7822 157.828 37.3718C157.828 33.026 161.513 29.5112 168.157 29.5112C174.801 29.5112 178.363 33.172 178.866 38.214H171.664C171.44 36.4735 170.123 35.3281 167.934 35.3281C166.114 35.3281 165.109 36.058 165.109 37.2932C165.109 41.3695 178.866 38.4836 179 48.0062C179 52.3969 175.081 55.7321 168.704 55.7321Z" fill="url(#paint11_linear_233_6)"/>
<path fill-rule="evenodd" clip-rule="evenodd" d="M97.9929 56.5588C99.093 55.9979 100.437 56.44 100.995 57.5464C101.08 57.7152 101.166 57.8811 101.252 58.0442C101.834 59.1381 101.423 60.4989 100.336 61.0836C99.2477 61.6683 97.8946 61.2555 97.3131 60.1616C97.2112 59.9697 97.1104 59.775 97.0108 59.5775C96.4531 58.4712 96.8927 57.1197 97.9929 56.5588ZM101.179 62.3446C102.082 61.4992 103.495 61.5498 104.335 62.4575C104.58 62.7215 104.827 62.9719 105.076 63.2094C105.97 64.0631 106.007 65.4847 105.159 66.3845C104.31 67.2843 102.896 67.3216 102.001 66.4678C101.685 66.1663 101.374 65.8502 101.067 65.5187C100.226 64.611 100.276 63.1899 101.179 62.3446ZM106.419 67.2506C106.922 66.118 108.243 65.6098 109.369 66.1155C109.69 66.2594 110.011 66.39 110.331 66.5081C111.489 66.9348 112.084 68.2248 111.66 69.3895C111.236 70.5542 109.953 71.1525 108.795 70.7258C108.38 70.5731 107.964 70.4039 107.548 70.2171C106.422 69.7114 105.916 68.3832 106.419 67.2506ZM122.247 66.5622C123.401 66.1327 124.684 66.723 125.114 67.883C125.546 69.045 124.959 70.3387 123.803 70.7726L123.022 68.6685C123.803 70.7726 123.803 70.7726 123.803 70.7726L123.801 70.7733L123.799 70.7742L123.793 70.7763L123.779 70.7817L123.735 70.7973C123.701 70.8098 123.654 70.8263 123.595 70.8462C123.478 70.8861 123.314 70.9397 123.108 71.002C121.927 71.3595 120.682 70.6863 120.326 69.4986C119.971 68.3108 120.64 67.0582 121.821 66.7008C121.976 66.654 122.091 66.6161 122.162 66.5918C122.198 66.5797 122.223 66.5709 122.236 66.5662L122.244 66.5632L122.241 66.5643M122.247 66.5622C122.245 66.5629 122.243 66.5636 122.241 66.5643L122.247 66.5622ZM113.161 69.6561C113.207 68.4166 114.243 67.449 115.476 67.495C115.84 67.5086 116.196 67.5113 116.543 67.5049C117.776 67.4822 118.794 68.4691 118.816 69.7093C118.839 70.9495 117.858 71.9732 116.624 71.9959C116.199 72.0038 115.76 72.0005 115.31 71.9837C114.078 71.9377 113.116 70.8956 113.161 69.6561Z" fill="url(#paint12_linear_233_6)"/>
<defs>
<linearGradient id="paint0_linear_233_6" x1="0" y1="0" x2="49.8555" y2="123.946" gradientUnits="userSpaceOnUse">
<stop stop-color="#3F8DC5"/>
<stop offset="1" stop-color="#62D9B5"/>
</linearGradient>
<linearGradient id="paint1_linear_233_6" x1="0" y1="0" x2="49.8555" y2="123.946" gradientUnits="userSpaceOnUse">
<stop stop-color="#3F8DC5"/>
<stop offset="1" stop-color="#62D9B5"/>
</linearGradient>
<linearGradient id="paint2_linear_233_6" x1="0" y1="0" x2="49.8555" y2="123.946" gradientUnits="userSpaceOnUse">
<stop stop-color="#3F8DC5"/>
<stop offset="1" stop-color="#62D9B5"/>
</linearGradient>
<linearGradient id="paint3_linear_233_6" x1="0" y1="0" x2="49.8555" y2="123.946" gradientUnits="userSpaceOnUse">
<stop stop-color="#3F8DC5"/>
<stop offset="1" stop-color="#62D9B5"/>
</linearGradient>
<linearGradient id="paint4_linear_233_6" x1="0" y1="0" x2="49.8555" y2="123.946" gradientUnits="userSpaceOnUse">
<stop stop-color="#3F8DC5"/>
<stop offset="1" stop-color="#62D9B5"/>
</linearGradient>
<linearGradient id="paint5_linear_233_6" x1="0" y1="0" x2="49.8555" y2="123.946" gradientUnits="userSpaceOnUse">
<stop stop-color="#3F8DC5"/>
<stop offset="1" stop-color="#62D9B5"/>
</linearGradient>
<linearGradient id="paint6_linear_233_6" x1="0" y1="0" x2="49.8555" y2="123.946" gradientUnits="userSpaceOnUse">
<stop stop-color="#3F8DC5"/>
<stop offset="1" stop-color="#62D9B5"/>
</linearGradient>
<linearGradient id="paint7_linear_233_6" x1="0" y1="0" x2="49.8555" y2="123.946" gradientUnits="userSpaceOnUse">
<stop stop-color="#3F8DC5"/>
<stop offset="1" stop-color="#62D9B5"/>
</linearGradient>
<linearGradient id="paint8_linear_233_6" x1="0" y1="0" x2="49.8555" y2="123.946" gradientUnits="userSpaceOnUse">
<stop stop-color="#3F8DC5"/>
<stop offset="1" stop-color="#62D9B5"/>
</linearGradient>
<linearGradient id="paint9_linear_233_6" x1="0" y1="0" x2="49.8555" y2="123.946" gradientUnits="userSpaceOnUse">
<stop stop-color="#3F8DC5"/>
<stop offset="1" stop-color="#62D9B5"/>
</linearGradient>
<linearGradient id="paint10_linear_233_6" x1="0" y1="0" x2="49.8555" y2="123.946" gradientUnits="userSpaceOnUse">
<stop stop-color="#3F8DC5"/>
<stop offset="1" stop-color="#62D9B5"/>
</linearGradient>
<linearGradient id="paint11_linear_233_6" x1="0" y1="0" x2="49.8555" y2="123.946" gradientUnits="userSpaceOnUse">
<stop stop-color="#3F8DC5"/>
<stop offset="1" stop-color="#62D9B5"/>
</linearGradient>
<linearGradient id="paint12_linear_233_6" x1="0" y1="0" x2="49.8555" y2="123.946" gradientUnits="userSpaceOnUse">
<stop stop-color="#3F8DC5"/>
<stop offset="1" stop-color="#62D9B5"/>
</linearGradient>
</defs>
</svg>
